<mxfile host="app.diagrams.net" modified="2023-12-25T05:49:41.880Z" agent="Mozilla/5.0 (Windows NT 10.0; Win64; x64) AppleWebKit/537.36 (KHTML, like Gecko) Chrome/120.0.0.0 Safari/537.36" etag="QGHcA8to81pZS5M9u_MO" version="22.1.11" type="device">
  <diagram name="Страница — 1" id="aXdCJQPuBVbPPZxZ_Jvq">
    <mxGraphModel dx="1250" dy="612" grid="1" gridSize="10" guides="1" tooltips="1" connect="1" arrows="1" fold="1" page="1" pageScale="1" pageWidth="827" pageHeight="1169" math="0" shadow="0">
      <root>
        <mxCell id="0" />
        <mxCell id="1" parent="0" />
        <mxCell id="x4g_7FOwcmEvrmpTXMsH-1" value="" style="edgeStyle=orthogonalEdgeStyle;rounded=0;orthogonalLoop=1;jettySize=auto;html=1;entryX=0.5;entryY=0;entryDx=0;entryDy=0;" edge="1" parent="1" source="mGQVRqEStbz9YIGs4I6Y-3" target="mGQVRqEStbz9YIGs4I6Y-5">
          <mxGeometry relative="1" as="geometry" />
        </mxCell>
        <mxCell id="mGQVRqEStbz9YIGs4I6Y-3" value="start" style="ellipse;whiteSpace=wrap;html=1;" parent="1" vertex="1">
          <mxGeometry x="289.25" y="190" width="131.25" height="30" as="geometry" />
        </mxCell>
        <mxCell id="MPmWhipeuHA877sHW2Xk-41" value="" style="edgeStyle=orthogonalEdgeStyle;rounded=0;orthogonalLoop=1;jettySize=auto;html=1;entryX=0.5;entryY=0;entryDx=0;entryDy=0;" parent="1" source="mGQVRqEStbz9YIGs4I6Y-5" target="MPmWhipeuHA877sHW2Xk-31" edge="1">
          <mxGeometry relative="1" as="geometry">
            <mxPoint x="373.79999999999995" y="252.0254237288135" as="targetPoint" />
          </mxGeometry>
        </mxCell>
        <mxCell id="mGQVRqEStbz9YIGs4I6Y-5" value="number(вводится из консоли)&lt;br&gt;&amp;nbsp;ArrayItem=0; &lt;br&gt;InputArray[number] (вводится из консоли)&lt;br&gt;ArrayNew[ArrayItem]" style="shape=parallelogram;perimeter=parallelogramPerimeter;whiteSpace=wrap;html=1;fixedSize=1;" parent="1" vertex="1">
          <mxGeometry x="211.5" y="250" width="287" height="90" as="geometry" />
        </mxCell>
        <mxCell id="mGQVRqEStbz9YIGs4I6Y-18" value="" style="edgeStyle=orthogonalEdgeStyle;rounded=0;orthogonalLoop=1;jettySize=auto;html=1;exitX=0.5;exitY=1;exitDx=0;exitDy=0;exitPerimeter=0;" parent="1" source="MPmWhipeuHA877sHW2Xk-32" target="mGQVRqEStbz9YIGs4I6Y-10" edge="1">
          <mxGeometry relative="1" as="geometry">
            <mxPoint x="659.5" y="577" as="sourcePoint" />
          </mxGeometry>
        </mxCell>
        <mxCell id="mGQVRqEStbz9YIGs4I6Y-10" value="end" style="ellipse;whiteSpace=wrap;html=1;" parent="1" vertex="1">
          <mxGeometry x="574.75" y="632" width="110.5" height="30" as="geometry" />
        </mxCell>
        <mxCell id="x4g_7FOwcmEvrmpTXMsH-6" style="edgeStyle=orthogonalEdgeStyle;rounded=0;orthogonalLoop=1;jettySize=auto;html=1;exitX=0;exitY=0.5;exitDx=0;exitDy=0;entryX=0;entryY=0.5;entryDx=0;entryDy=0;" edge="1" parent="1" source="MPmWhipeuHA877sHW2Xk-12" target="MPmWhipeuHA877sHW2Xk-31">
          <mxGeometry relative="1" as="geometry">
            <Array as="points">
              <mxPoint x="140" y="657" />
              <mxPoint x="140" y="422" />
            </Array>
          </mxGeometry>
        </mxCell>
        <mxCell id="MPmWhipeuHA877sHW2Xk-12" value="ArrayItem=ArrayItem+1&lt;br&gt;ArrayNew[]=ArrayNew[ArrayItem]&lt;br&gt;ArrayNew[ArrayItem-1]=InputNumber[i]" style="whiteSpace=wrap;html=1;" parent="1" vertex="1">
          <mxGeometry x="224" y="622" width="260" height="70" as="geometry" />
        </mxCell>
        <mxCell id="MPmWhipeuHA877sHW2Xk-33" value="" style="edgeStyle=orthogonalEdgeStyle;rounded=0;orthogonalLoop=1;jettySize=auto;html=1;" parent="1" source="MPmWhipeuHA877sHW2Xk-31" target="MPmWhipeuHA877sHW2Xk-32" edge="1">
          <mxGeometry relative="1" as="geometry" />
        </mxCell>
        <mxCell id="MPmWhipeuHA877sHW2Xk-34" value="No" style="edgeLabel;html=1;align=center;verticalAlign=middle;resizable=0;points=[];" parent="MPmWhipeuHA877sHW2Xk-33" vertex="1" connectable="0">
          <mxGeometry x="-0.0631" y="1" relative="1" as="geometry">
            <mxPoint x="-24" y="-9" as="offset" />
          </mxGeometry>
        </mxCell>
        <mxCell id="MPmWhipeuHA877sHW2Xk-51" value="" style="edgeStyle=orthogonalEdgeStyle;rounded=0;orthogonalLoop=1;jettySize=auto;html=1;" parent="1" source="MPmWhipeuHA877sHW2Xk-31" edge="1">
          <mxGeometry relative="1" as="geometry">
            <mxPoint x="355" y="512" as="targetPoint" />
            <Array as="points">
              <mxPoint x="355" y="487" />
            </Array>
          </mxGeometry>
        </mxCell>
        <mxCell id="MPmWhipeuHA877sHW2Xk-52" value="Yes" style="edgeLabel;html=1;align=center;verticalAlign=middle;resizable=0;points=[];" parent="MPmWhipeuHA877sHW2Xk-51" vertex="1" connectable="0">
          <mxGeometry x="-0.0757" relative="1" as="geometry">
            <mxPoint x="15" as="offset" />
          </mxGeometry>
        </mxCell>
        <mxCell id="MPmWhipeuHA877sHW2Xk-31" value="i &amp;lt; number" style="rhombus;whiteSpace=wrap;html=1;" parent="1" vertex="1">
          <mxGeometry x="210" y="402" width="290" height="40" as="geometry" />
        </mxCell>
        <mxCell id="MPmWhipeuHA877sHW2Xk-32" value="print(ArrayNew[ArrayItem])" style="shape=document;whiteSpace=wrap;html=1;boundedLbl=1;" parent="1" vertex="1">
          <mxGeometry x="550" y="532" width="160" height="40" as="geometry" />
        </mxCell>
        <mxCell id="sPbEXSprvQkZ1IQuQm3k-7" value="Написать программу, которая из имеющегося массива &lt;br&gt;строк формирует новый массив из строк, длина &lt;br&gt;которых меньше, либоравна 3 символам." style="ellipse;shape=cloud;whiteSpace=wrap;html=1;textOpacity=90;" parent="1" vertex="1">
          <mxGeometry x="180" y="20" width="440" height="120" as="geometry" />
        </mxCell>
        <mxCell id="x4g_7FOwcmEvrmpTXMsH-7" style="edgeStyle=orthogonalEdgeStyle;rounded=0;orthogonalLoop=1;jettySize=auto;html=1;" edge="1" parent="1" source="x4g_7FOwcmEvrmpTXMsH-2">
          <mxGeometry relative="1" as="geometry">
            <mxPoint x="140" y="532" as="targetPoint" />
          </mxGeometry>
        </mxCell>
        <mxCell id="x4g_7FOwcmEvrmpTXMsH-2" value="InputArray[i].Length &amp;lt; 3" style="rhombus;whiteSpace=wrap;html=1;" vertex="1" parent="1">
          <mxGeometry x="210" y="512" width="290" height="40" as="geometry" />
        </mxCell>
        <mxCell id="x4g_7FOwcmEvrmpTXMsH-3" value="" style="edgeStyle=orthogonalEdgeStyle;rounded=0;orthogonalLoop=1;jettySize=auto;html=1;" edge="1" parent="1">
          <mxGeometry relative="1" as="geometry">
            <mxPoint x="353" y="622" as="targetPoint" />
            <mxPoint x="353" y="552" as="sourcePoint" />
            <Array as="points">
              <mxPoint x="353" y="597" />
            </Array>
          </mxGeometry>
        </mxCell>
        <mxCell id="x4g_7FOwcmEvrmpTXMsH-4" value="Yes" style="edgeLabel;html=1;align=center;verticalAlign=middle;resizable=0;points=[];" vertex="1" connectable="0" parent="x4g_7FOwcmEvrmpTXMsH-3">
          <mxGeometry x="-0.0757" relative="1" as="geometry">
            <mxPoint x="15" as="offset" />
          </mxGeometry>
        </mxCell>
        <mxCell id="x4g_7FOwcmEvrmpTXMsH-8" value="No" style="edgeLabel;html=1;align=center;verticalAlign=middle;resizable=0;points=[];" vertex="1" connectable="0" parent="1">
          <mxGeometry x="605.2" y="422" as="geometry">
            <mxPoint x="-431" y="98" as="offset" />
          </mxGeometry>
        </mxCell>
      </root>
    </mxGraphModel>
  </diagram>
</mxfile>
